{
	"patcher" : 	{
		"fileversion" : 1,
		"rect" : [ 440.0, 44.0, 593.0, 516.0 ],
		"bglocked" : 0,
		"defrect" : [ 440.0, 44.0, 593.0, 516.0 ],
		"openrect" : [ 0.0, 0.0, 0.0, 0.0 ],
		"openinpresentation" : 0,
		"default_fontsize" : 12.0,
		"default_fontface" : 0,
		"default_fontname" : "Arial",
		"gridonopen" : 0,
		"gridsize" : [ 15.0, 15.0 ],
		"gridsnaponopen" : 0,
		"toolbarvisible" : 1,
		"boxanimatetime" : 200,
		"imprint" : 0,
		"boxes" : [ 			{
				"box" : 				{
					"maxclass" : "comment",
					"text" : "to read text messages off a phone, you need to connect it via the serial port (bluetooth or cable).\nno additional hardware needed.",
					"linecount" : 3,
					"presentation_rect" : [ 263.0, 290.0, 0.0, 0.0 ],
					"numinlets" : 1,
					"id" : "obj-1",
					"fontname" : "Arial",
					"patching_rect" : [ 261.0, 279.0, 275.0, 48.0 ],
					"numoutlets" : 0,
					"fontsize" : 12.0
				}

			}
, 			{
				"box" : 				{
					"maxclass" : "comment",
					"text" : "clear messages",
					"hidden" : 1,
					"numinlets" : 1,
					"id" : "obj-45",
					"fontname" : "Arial",
					"patching_rect" : [ 367.0, 377.0, 95.0, 20.0 ],
					"numoutlets" : 0,
					"fontsize" : 12.0
				}

			}
, 			{
				"box" : 				{
					"maxclass" : "message",
					"hidden" : 1,
					"numinlets" : 2,
					"id" : "obj-22",
					"fontname" : "Arial",
					"patching_rect" : [ 372.0, 397.0, 72.0, 18.0 ],
					"numoutlets" : 1,
					"outlettype" : [ "" ],
					"fontsize" : 12.0
				}

			}
, 			{
				"box" : 				{
					"maxclass" : "comment",
					"text" : "1.0",
					"numinlets" : 1,
					"id" : "obj-21",
					"fontname" : "Arial",
					"patching_rect" : [ 272.0, 26.0, 27.0, 20.0 ],
					"numoutlets" : 0,
					"fontsize" : 12.0
				}

			}
, 			{
				"box" : 				{
					"maxclass" : "comment",
					"text" : "decode mobile phone text messages (sms)",
					"numinlets" : 1,
					"id" : "obj-20",
					"fontname" : "Arial",
					"patching_rect" : [ 123.0, 49.0, 239.0, 20.0 ],
					"numoutlets" : 0,
					"fontsize" : 12.0
				}

			}
, 			{
				"box" : 				{
					"maxclass" : "newobj",
					"text" : "p more...",
					"numinlets" : 0,
					"id" : "obj-18",
					"fontname" : "Arial",
					"patching_rect" : [ 296.0, 330.0, 58.0, 20.0 ],
					"numoutlets" : 0,
					"fontsize" : 12.0,
					"patcher" : 					{
						"fileversion" : 1,
						"rect" : [ 187.0, 44.0, 654.0, 784.0 ],
						"bglocked" : 0,
						"defrect" : [ 187.0, 44.0, 654.0, 784.0 ],
						"openrect" : [ 0.0, 0.0, 0.0, 0.0 ],
						"openinpresentation" : 0,
						"default_fontsize" : 12.0,
						"default_fontface" : 0,
						"default_fontname" : "Arial",
						"gridonopen" : 0,
						"gridsize" : [ 15.0, 15.0 ],
						"gridsnaponopen" : 0,
						"toolbarvisible" : 1,
						"boxanimatetime" : 200,
						"imprint" : 0,
						"boxes" : [ 							{
								"box" : 								{
									"maxclass" : "comment",
									"text" : "tested on a sony ericsson t68i.  other/newer phones might implement the pdu format slightly different and use other AT commands.",
									"linecount" : 3,
									"presentation_rect" : [ 381.0, 514.0, 0.0, 0.0 ],
									"numinlets" : 1,
									"id" : "obj-14",
									"fontname" : "Arial",
									"patching_rect" : [ 346.0, 509.0, 292.0, 48.0 ],
									"numoutlets" : 0,
									"fontsize" : 12.0
								}

							}
, 							{
								"box" : 								{
									"maxclass" : "comment",
									"text" : "clear messages",
									"hidden" : 1,
									"numinlets" : 1,
									"id" : "obj-45",
									"fontname" : "Arial",
									"patching_rect" : [ 553.0, 622.0, 95.0, 20.0 ],
									"numoutlets" : 0,
									"fontsize" : 12.0
								}

							}
, 							{
								"box" : 								{
									"maxclass" : "message",
									"hidden" : 1,
									"numinlets" : 2,
									"id" : "obj-44",
									"fontname" : "Arial",
									"patching_rect" : [ 578.0, 645.0, 32.5, 18.0 ],
									"numoutlets" : 1,
									"outlettype" : [ "" ],
									"fontsize" : 12.0
								}

							}
, 							{
								"box" : 								{
									"maxclass" : "newobj",
									"text" : "print serialoutput",
									"numinlets" : 1,
									"id" : "obj-42",
									"fontname" : "Arial",
									"patching_rect" : [ 185.0, 366.0, 99.0, 20.0 ],
									"numoutlets" : 0,
									"fontsize" : 12.0
								}

							}
, 							{
								"box" : 								{
									"maxclass" : "message",
									"numinlets" : 2,
									"id" : "obj-26",
									"fontname" : "Arial",
									"patching_rect" : [ 429.0, 695.0, 72.0, 18.0 ],
									"numoutlets" : 1,
									"outlettype" : [ "" ],
									"fontsize" : 12.0
								}

							}
, 							{
								"box" : 								{
									"maxclass" : "message",
									"numinlets" : 2,
									"id" : "obj-27",
									"fontname" : "Arial",
									"patching_rect" : [ 355.0, 695.0, 72.0, 18.0 ],
									"numoutlets" : 1,
									"outlettype" : [ "" ],
									"fontsize" : 12.0
								}

							}
, 							{
								"box" : 								{
									"maxclass" : "message",
									"numinlets" : 2,
									"id" : "obj-37",
									"fontname" : "Arial",
									"patching_rect" : [ 283.0, 695.0, 70.0, 18.0 ],
									"numoutlets" : 1,
									"outlettype" : [ "" ],
									"fontsize" : 12.0
								}

							}
, 							{
								"box" : 								{
									"maxclass" : "message",
									"numinlets" : 2,
									"id" : "obj-38",
									"fontname" : "Arial",
									"patching_rect" : [ 176.0, 695.0, 105.0, 18.0 ],
									"numoutlets" : 1,
									"outlettype" : [ "" ],
									"fontsize" : 12.0
								}

							}
, 							{
								"box" : 								{
									"maxclass" : "message",
									"numinlets" : 2,
									"id" : "obj-39",
									"fontname" : "Arial",
									"patching_rect" : [ 176.0, 732.0, 442.0, 18.0 ],
									"numoutlets" : 1,
									"outlettype" : [ "" ],
									"fontsize" : 12.0
								}

							}
, 							{
								"box" : 								{
									"maxclass" : "newobj",
									"text" : "route sendNumber time date zone msgText",
									"numinlets" : 1,
									"id" : "obj-40",
									"fontname" : "Arial",
									"patching_rect" : [ 262.0, 633.0, 240.0, 20.0 ],
									"numoutlets" : 6,
									"outlettype" : [ "", "", "", "", "", "" ],
									"fontsize" : 12.0
								}

							}
, 							{
								"box" : 								{
									"maxclass" : "newobj",
									"text" : "print",
									"numinlets" : 1,
									"id" : "obj-3",
									"fontname" : "Arial",
									"patching_rect" : [ 222.0, 620.0, 34.0, 20.0 ],
									"numoutlets" : 0,
									"fontsize" : 12.0
								}

							}
, 							{
								"box" : 								{
									"maxclass" : "newobj",
									"text" : "mxj f0.pdu",
									"numinlets" : 1,
									"id" : "obj-41",
									"fontname" : "Arial",
									"patching_rect" : [ 222.0, 589.0, 64.0, 20.0 ],
									"numoutlets" : 1,
									"outlettype" : [ "" ],
									"fontsize" : 12.0
								}

							}
, 							{
								"box" : 								{
									"maxclass" : "newobj",
									"text" : "fromsymbol",
									"numinlets" : 1,
									"id" : "obj-55",
									"fontname" : "Arial",
									"patching_rect" : [ 181.0, 427.0, 73.0, 20.0 ],
									"numoutlets" : 1,
									"outlettype" : [ "" ],
									"fontsize" : 12.0
								}

							}
, 							{
								"box" : 								{
									"maxclass" : "newobj",
									"text" : "prepend decode",
									"numinlets" : 1,
									"id" : "obj-28",
									"fontname" : "Arial",
									"patching_rect" : [ 222.0, 565.0, 97.0, 20.0 ],
									"numoutlets" : 1,
									"outlettype" : [ "" ],
									"fontsize" : 12.0
								}

							}
, 							{
								"box" : 								{
									"maxclass" : "newobj",
									"text" : "zl group",
									"numinlets" : 2,
									"id" : "obj-33",
									"fontname" : "Arial",
									"patching_rect" : [ 181.0, 509.0, 53.0, 20.0 ],
									"numoutlets" : 2,
									"outlettype" : [ "", "" ],
									"fontsize" : 12.0
								}

							}
, 							{
								"box" : 								{
									"maxclass" : "newobj",
									"text" : "route +CMGL: +CMGR: OK",
									"numinlets" : 1,
									"id" : "obj-34",
									"fontname" : "Arial",
									"patching_rect" : [ 181.0, 473.0, 157.0, 20.0 ],
									"numoutlets" : 4,
									"outlettype" : [ "", "", "", "" ],
									"fontsize" : 12.0
								}

							}
, 							{
								"box" : 								{
									"maxclass" : "newobj",
									"text" : "unpack 0 0 l l",
									"numinlets" : 1,
									"id" : "obj-35",
									"fontname" : "Arial",
									"patching_rect" : [ 181.0, 530.0, 81.0, 20.0 ],
									"numoutlets" : 4,
									"outlettype" : [ "int", "int", "", "" ],
									"fontsize" : 12.0
								}

							}
, 							{
								"box" : 								{
									"maxclass" : "newobj",
									"text" : "zl iter 1",
									"numinlets" : 2,
									"id" : "obj-36",
									"fontname" : "Arial",
									"patching_rect" : [ 181.0, 450.0, 49.0, 20.0 ],
									"numoutlets" : 2,
									"outlettype" : [ "", "" ],
									"fontsize" : 12.0
								}

							}
, 							{
								"box" : 								{
									"maxclass" : "comment",
									"text" : "thanks to Jacob Sello for beta testing",
									"numinlets" : 1,
									"id" : "obj-25",
									"fontname" : "Arial",
									"patching_rect" : [ 346.0, 558.0, 207.0, 20.0 ],
									"numoutlets" : 0,
									"fontsize" : 12.0
								}

							}
, 							{
								"box" : 								{
									"maxclass" : "newobj",
									"text" : "loadbang",
									"hidden" : 1,
									"numinlets" : 1,
									"id" : "obj-23",
									"fontname" : "Arial",
									"patching_rect" : [ 10.0, 257.0, 60.0, 20.0 ],
									"numoutlets" : 1,
									"outlettype" : [ "bang" ],
									"fontsize" : 12.0
								}

							}
, 							{
								"box" : 								{
									"maxclass" : "comment",
									"text" : "(additional features...  google 'gsm AT commands')",
									"numinlets" : 1,
									"id" : "obj-12",
									"fontname" : "Arial",
									"patching_rect" : [ 250.0, 209.0, 279.0, 20.0 ],
									"numoutlets" : 0,
									"fontsize" : 12.0
								}

							}
, 							{
								"box" : 								{
									"maxclass" : "comment",
									"text" : "first connect mobile via bluetooth or serial cable,\nthen set the right serial port (a-z or COM1-... on windows)",
									"linecount" : 2,
									"numinlets" : 1,
									"id" : "obj-1",
									"fontname" : "Arial",
									"patching_rect" : [ 243.0, 282.0, 316.0, 34.0 ],
									"numoutlets" : 0,
									"fontsize" : 12.0
								}

							}
, 							{
								"box" : 								{
									"maxclass" : "comment",
									"text" : "set message storage area",
									"numinlets" : 1,
									"id" : "obj-13",
									"fontname" : "Arial",
									"patching_rect" : [ 255.0, 34.0, 149.0, 20.0 ],
									"numoutlets" : 0,
									"fontsize" : 12.0
								}

							}
, 							{
								"box" : 								{
									"maxclass" : "message",
									"text" : "AT+CPMS=\\\"ME\\\"\\,\\\"ME\\\"",
									"numinlets" : 2,
									"id" : "obj-24",
									"fontname" : "Arial",
									"patching_rect" : [ 106.0, 35.0, 147.0, 18.0 ],
									"numoutlets" : 1,
									"outlettype" : [ "" ],
									"fontsize" : 12.0
								}

							}
, 							{
								"box" : 								{
									"maxclass" : "comment",
									"text" : "list supported message storage areas",
									"numinlets" : 1,
									"id" : "obj-7",
									"fontname" : "Arial",
									"patching_rect" : [ 188.0, 13.0, 211.0, 20.0 ],
									"numoutlets" : 0,
									"fontsize" : 12.0
								}

							}
, 							{
								"box" : 								{
									"maxclass" : "message",
									"text" : "AT+CPMS=?",
									"numinlets" : 2,
									"id" : "obj-5",
									"fontname" : "Arial",
									"patching_rect" : [ 106.0, 13.0, 80.0, 18.0 ],
									"numoutlets" : 1,
									"outlettype" : [ "" ],
									"fontsize" : 12.0
								}

							}
, 							{
								"box" : 								{
									"maxclass" : "message",
									"text" : "print",
									"numinlets" : 2,
									"id" : "obj-2",
									"fontname" : "Arial",
									"patching_rect" : [ 207.0, 289.0, 34.0, 18.0 ],
									"numoutlets" : 1,
									"outlettype" : [ "" ],
									"fontsize" : 12.0
								}

							}
, 							{
								"box" : 								{
									"maxclass" : "comment",
									"text" : "list all unread messages",
									"numinlets" : 1,
									"id" : "obj-29",
									"fontname" : "Arial",
									"patching_rect" : [ 188.0, 73.0, 139.0, 20.0 ],
									"numoutlets" : 0,
									"fontsize" : 12.0
								}

							}
, 							{
								"box" : 								{
									"maxclass" : "message",
									"text" : "AT+CMGL=0",
									"numinlets" : 2,
									"id" : "obj-32",
									"fontname" : "Arial",
									"patching_rect" : [ 106.0, 73.0, 80.0, 18.0 ],
									"numoutlets" : 1,
									"outlettype" : [ "" ],
									"fontsize" : 12.0
								}

							}
, 							{
								"box" : 								{
									"maxclass" : "newobj",
									"text" : "sprintf AT+CMGR=%ld",
									"numinlets" : 1,
									"id" : "obj-31",
									"fontname" : "Arial",
									"patching_rect" : [ 159.0, 158.0, 131.0, 20.0 ],
									"numoutlets" : 1,
									"outlettype" : [ "" ],
									"fontsize" : 12.0
								}

							}
, 							{
								"box" : 								{
									"maxclass" : "number",
									"numinlets" : 1,
									"id" : "obj-30",
									"fontname" : "Arial",
									"patching_rect" : [ 106.0, 158.0, 50.0, 20.0 ],
									"numoutlets" : 2,
									"minimum" : 0,
									"outlettype" : [ "int", "bang" ],
									"fontsize" : 12.0
								}

							}
, 							{
								"box" : 								{
									"maxclass" : "comment",
									"text" : "get sms number",
									"numinlets" : 1,
									"id" : "obj-22",
									"fontname" : "Arial",
									"patching_rect" : [ 190.0, 133.0, 97.0, 20.0 ],
									"numoutlets" : 0,
									"fontsize" : 12.0
								}

							}
, 							{
								"box" : 								{
									"maxclass" : "comment",
									"text" : "list all read messages",
									"numinlets" : 1,
									"id" : "obj-20",
									"fontname" : "Arial",
									"patching_rect" : [ 188.0, 95.0, 126.0, 20.0 ],
									"numoutlets" : 0,
									"fontsize" : 12.0
								}

							}
, 							{
								"box" : 								{
									"maxclass" : "newobj",
									"text" : "t b s",
									"numinlets" : 1,
									"id" : "obj-19",
									"fontname" : "Arial",
									"patching_rect" : [ 106.0, 212.0, 33.0, 20.0 ],
									"numoutlets" : 2,
									"outlettype" : [ "bang", "" ],
									"fontsize" : 12.0
								}

							}
, 							{
								"box" : 								{
									"maxclass" : "toggle",
									"numinlets" : 1,
									"id" : "obj-18",
									"patching_rect" : [ 10.0, 284.0, 20.0, 20.0 ],
									"numoutlets" : 1,
									"outlettype" : [ "int" ]
								}

							}
, 							{
								"box" : 								{
									"maxclass" : "newobj",
									"text" : "qmetro 2",
									"numinlets" : 2,
									"id" : "obj-16",
									"fontname" : "Arial",
									"patching_rect" : [ 10.0, 307.0, 58.0, 20.0 ],
									"numoutlets" : 1,
									"outlettype" : [ "bang" ],
									"fontsize" : 12.0
								}

							}
, 							{
								"box" : 								{
									"maxclass" : "comment",
									"text" : "dial number",
									"numinlets" : 1,
									"id" : "obj-15",
									"fontname" : "Arial",
									"patching_rect" : [ 354.0, 231.0, 73.0, 20.0 ],
									"numoutlets" : 0,
									"fontsize" : 12.0
								}

							}
, 							{
								"box" : 								{
									"maxclass" : "message",
									"text" : "AT+CMGR=1",
									"numinlets" : 2,
									"id" : "obj-11",
									"fontname" : "Arial",
									"patching_rect" : [ 106.0, 133.0, 82.0, 18.0 ],
									"numoutlets" : 1,
									"outlettype" : [ "" ],
									"fontsize" : 12.0
								}

							}
, 							{
								"box" : 								{
									"maxclass" : "message",
									"text" : "AT+CMGL=1",
									"numinlets" : 2,
									"id" : "obj-8",
									"fontname" : "Arial",
									"patching_rect" : [ 106.0, 95.0, 80.0, 18.0 ],
									"numoutlets" : 1,
									"outlettype" : [ "" ],
									"fontsize" : 12.0
								}

							}
, 							{
								"box" : 								{
									"maxclass" : "newobj",
									"text" : "thresh",
									"numinlets" : 2,
									"id" : "obj-4",
									"fontname" : "Arial",
									"patching_rect" : [ 113.0, 317.0, 44.0, 20.0 ],
									"numoutlets" : 1,
									"outlettype" : [ "" ],
									"fontsize" : 12.0
								}

							}
, 							{
								"box" : 								{
									"maxclass" : "message",
									"text" : "ATD 12345678",
									"numinlets" : 2,
									"id" : "obj-9",
									"fontname" : "Arial",
									"patching_rect" : [ 260.0, 232.0, 90.0, 18.0 ],
									"numoutlets" : 1,
									"outlettype" : [ "" ],
									"fontsize" : 12.0
								}

							}
, 							{
								"box" : 								{
									"maxclass" : "message",
									"text" : "13",
									"numinlets" : 2,
									"id" : "obj-21",
									"fontname" : "Arial",
									"patching_rect" : [ 95.0, 253.0, 32.5, 18.0 ],
									"numoutlets" : 1,
									"outlettype" : [ "" ],
									"fontsize" : 12.0
								}

							}
, 							{
								"box" : 								{
									"maxclass" : "newobj",
									"text" : "atoi",
									"numinlets" : 3,
									"id" : "obj-17",
									"fontname" : "Arial",
									"patching_rect" : [ 131.0, 253.0, 46.0, 20.0 ],
									"numoutlets" : 1,
									"outlettype" : [ "list" ],
									"fontsize" : 12.0
								}

							}
, 							{
								"box" : 								{
									"maxclass" : "newobj",
									"text" : "itoa",
									"numinlets" : 3,
									"id" : "obj-10",
									"fontname" : "Arial",
									"patching_rect" : [ 113.0, 340.0, 46.0, 20.0 ],
									"numoutlets" : 1,
									"outlettype" : [ "int" ],
									"fontsize" : 12.0
								}

							}
, 							{
								"box" : 								{
									"maxclass" : "newobj",
									"text" : "serial c 9600",
									"numinlets" : 1,
									"id" : "obj-6",
									"fontname" : "Arial",
									"patching_rect" : [ 113.0, 289.0, 79.0, 20.0 ],
									"numoutlets" : 2,
									"outlettype" : [ "int", "" ],
									"fontsize" : 12.0
								}

							}
 ],
						"lines" : [ 							{
								"patchline" : 								{
									"source" : [ "obj-24", 0 ],
									"destination" : [ "obj-19", 0 ],
									"hidden" : 0,
									"midpoints" : [  ]
								}

							}
, 							{
								"patchline" : 								{
									"source" : [ "obj-5", 0 ],
									"destination" : [ "obj-19", 0 ],
									"hidden" : 0,
									"midpoints" : [  ]
								}

							}
, 							{
								"patchline" : 								{
									"source" : [ "obj-32", 0 ],
									"destination" : [ "obj-19", 0 ],
									"hidden" : 0,
									"midpoints" : [  ]
								}

							}
, 							{
								"patchline" : 								{
									"source" : [ "obj-4", 0 ],
									"destination" : [ "obj-10", 0 ],
									"hidden" : 0,
									"midpoints" : [  ]
								}

							}
, 							{
								"patchline" : 								{
									"source" : [ "obj-11", 0 ],
									"destination" : [ "obj-19", 0 ],
									"hidden" : 0,
									"midpoints" : [  ]
								}

							}
, 							{
								"patchline" : 								{
									"source" : [ "obj-8", 0 ],
									"destination" : [ "obj-19", 0 ],
									"hidden" : 0,
									"midpoints" : [  ]
								}

							}
, 							{
								"patchline" : 								{
									"source" : [ "obj-19", 1 ],
									"destination" : [ "obj-17", 0 ],
									"hidden" : 0,
									"midpoints" : [  ]
								}

							}
, 							{
								"patchline" : 								{
									"source" : [ "obj-19", 0 ],
									"destination" : [ "obj-21", 0 ],
									"hidden" : 0,
									"midpoints" : [  ]
								}

							}
, 							{
								"patchline" : 								{
									"source" : [ "obj-9", 0 ],
									"destination" : [ "obj-19", 0 ],
									"hidden" : 0,
									"midpoints" : [  ]
								}

							}
, 							{
								"patchline" : 								{
									"source" : [ "obj-30", 0 ],
									"destination" : [ "obj-31", 0 ],
									"hidden" : 0,
									"midpoints" : [  ]
								}

							}
, 							{
								"patchline" : 								{
									"source" : [ "obj-31", 0 ],
									"destination" : [ "obj-19", 0 ],
									"hidden" : 0,
									"midpoints" : [  ]
								}

							}
, 							{
								"patchline" : 								{
									"source" : [ "obj-18", 0 ],
									"destination" : [ "obj-16", 0 ],
									"hidden" : 0,
									"midpoints" : [  ]
								}

							}
, 							{
								"patchline" : 								{
									"source" : [ "obj-23", 0 ],
									"destination" : [ "obj-18", 0 ],
									"hidden" : 1,
									"midpoints" : [  ]
								}

							}
, 							{
								"patchline" : 								{
									"source" : [ "obj-55", 0 ],
									"destination" : [ "obj-36", 0 ],
									"hidden" : 0,
									"midpoints" : [  ]
								}

							}
, 							{
								"patchline" : 								{
									"source" : [ "obj-34", 2 ],
									"destination" : [ "obj-33", 0 ],
									"hidden" : 0,
									"midpoints" : [  ]
								}

							}
, 							{
								"patchline" : 								{
									"source" : [ "obj-36", 0 ],
									"destination" : [ "obj-34", 0 ],
									"hidden" : 0,
									"midpoints" : [  ]
								}

							}
, 							{
								"patchline" : 								{
									"source" : [ "obj-34", 1 ],
									"destination" : [ "obj-33", 0 ],
									"hidden" : 0,
									"midpoints" : [  ]
								}

							}
, 							{
								"patchline" : 								{
									"source" : [ "obj-34", 0 ],
									"destination" : [ "obj-33", 0 ],
									"hidden" : 0,
									"midpoints" : [  ]
								}

							}
, 							{
								"patchline" : 								{
									"source" : [ "obj-34", 3 ],
									"destination" : [ "obj-33", 0 ],
									"hidden" : 0,
									"midpoints" : [  ]
								}

							}
, 							{
								"patchline" : 								{
									"source" : [ "obj-33", 0 ],
									"destination" : [ "obj-35", 0 ],
									"hidden" : 0,
									"midpoints" : [  ]
								}

							}
, 							{
								"patchline" : 								{
									"source" : [ "obj-35", 3 ],
									"destination" : [ "obj-28", 0 ],
									"hidden" : 0,
									"midpoints" : [  ]
								}

							}
, 							{
								"patchline" : 								{
									"source" : [ "obj-35", 2 ],
									"destination" : [ "obj-28", 0 ],
									"hidden" : 0,
									"midpoints" : [  ]
								}

							}
, 							{
								"patchline" : 								{
									"source" : [ "obj-10", 0 ],
									"destination" : [ "obj-55", 0 ],
									"hidden" : 0,
									"midpoints" : [  ]
								}

							}
, 							{
								"patchline" : 								{
									"source" : [ "obj-40", 4 ],
									"destination" : [ "obj-39", 1 ],
									"hidden" : 0,
									"midpoints" : [  ]
								}

							}
, 							{
								"patchline" : 								{
									"source" : [ "obj-40", 3 ],
									"destination" : [ "obj-26", 1 ],
									"hidden" : 0,
									"midpoints" : [  ]
								}

							}
, 							{
								"patchline" : 								{
									"source" : [ "obj-40", 2 ],
									"destination" : [ "obj-27", 1 ],
									"hidden" : 0,
									"midpoints" : [  ]
								}

							}
, 							{
								"patchline" : 								{
									"source" : [ "obj-40", 1 ],
									"destination" : [ "obj-37", 1 ],
									"hidden" : 0,
									"midpoints" : [  ]
								}

							}
, 							{
								"patchline" : 								{
									"source" : [ "obj-40", 0 ],
									"destination" : [ "obj-38", 1 ],
									"hidden" : 0,
									"midpoints" : [  ]
								}

							}
, 							{
								"patchline" : 								{
									"source" : [ "obj-41", 0 ],
									"destination" : [ "obj-40", 0 ],
									"hidden" : 0,
									"midpoints" : [  ]
								}

							}
, 							{
								"patchline" : 								{
									"source" : [ "obj-41", 0 ],
									"destination" : [ "obj-3", 0 ],
									"hidden" : 0,
									"midpoints" : [  ]
								}

							}
, 							{
								"patchline" : 								{
									"source" : [ "obj-28", 0 ],
									"destination" : [ "obj-41", 0 ],
									"hidden" : 0,
									"midpoints" : [  ]
								}

							}
, 							{
								"patchline" : 								{
									"source" : [ "obj-17", 0 ],
									"destination" : [ "obj-6", 0 ],
									"hidden" : 0,
									"midpoints" : [  ]
								}

							}
, 							{
								"patchline" : 								{
									"source" : [ "obj-6", 0 ],
									"destination" : [ "obj-4", 0 ],
									"hidden" : 0,
									"midpoints" : [  ]
								}

							}
, 							{
								"patchline" : 								{
									"source" : [ "obj-21", 0 ],
									"destination" : [ "obj-6", 0 ],
									"hidden" : 0,
									"midpoints" : [  ]
								}

							}
, 							{
								"patchline" : 								{
									"source" : [ "obj-2", 0 ],
									"destination" : [ "obj-6", 0 ],
									"hidden" : 0,
									"midpoints" : [  ]
								}

							}
, 							{
								"patchline" : 								{
									"source" : [ "obj-16", 0 ],
									"destination" : [ "obj-6", 0 ],
									"hidden" : 0,
									"midpoints" : [  ]
								}

							}
, 							{
								"patchline" : 								{
									"source" : [ "obj-10", 0 ],
									"destination" : [ "obj-42", 0 ],
									"hidden" : 0,
									"midpoints" : [  ]
								}

							}
, 							{
								"patchline" : 								{
									"source" : [ "obj-44", 0 ],
									"destination" : [ "obj-37", 1 ],
									"hidden" : 1,
									"midpoints" : [  ]
								}

							}
, 							{
								"patchline" : 								{
									"source" : [ "obj-44", 0 ],
									"destination" : [ "obj-27", 1 ],
									"hidden" : 1,
									"midpoints" : [  ]
								}

							}
, 							{
								"patchline" : 								{
									"source" : [ "obj-44", 0 ],
									"destination" : [ "obj-26", 1 ],
									"hidden" : 1,
									"midpoints" : [  ]
								}

							}
, 							{
								"patchline" : 								{
									"source" : [ "obj-44", 0 ],
									"destination" : [ "obj-38", 1 ],
									"hidden" : 1,
									"midpoints" : [  ]
								}

							}
, 							{
								"patchline" : 								{
									"source" : [ "obj-44", 0 ],
									"destination" : [ "obj-39", 1 ],
									"hidden" : 1,
									"midpoints" : [  ]
								}

							}
 ]
					}
,
					"saved_object_attributes" : 					{
						"default_fontsize" : 12.0,
						"fontname" : "Arial",
						"globalpatchername" : "",
						"default_fontface" : 0,
						"fontface" : 0,
						"fontsize" : 12.0,
						"default_fontname" : "Arial"
					}

				}

			}
, 			{
				"box" : 				{
					"maxclass" : "comment",
					"text" : "/f0",
					"numinlets" : 1,
					"id" : "obj-17",
					"fontname" : "Arial",
					"patching_rect" : [ 564.0, 489.0, 24.0, 20.0 ],
					"numoutlets" : 0,
					"fontsize" : 12.0
				}

			}
, 			{
				"box" : 				{
					"maxclass" : "fpic",
					"numinlets" : 1,
					"id" : "obj-26",
					"patching_rect" : [ 455.0, 364.0, 137.0, 151.0 ],
					"pic" : "logo.tiff",
					"numoutlets" : 0
				}

			}
, 			{
				"box" : 				{
					"maxclass" : "comment",
					"text" : "f0.pdu",
					"numinlets" : 1,
					"id" : "obj-7",
					"fontname" : "Arial",
					"patching_rect" : [ 194.0, 16.0, 77.0, 34.0 ],
					"numoutlets" : 0,
					"fontsize" : 24.0
				}

			}
, 			{
				"box" : 				{
					"maxclass" : "message",
					"numinlets" : 2,
					"id" : "obj-6",
					"fontname" : "Arial",
					"patching_rect" : [ 263.0, 441.0, 72.0, 18.0 ],
					"numoutlets" : 1,
					"outlettype" : [ "" ],
					"fontsize" : 12.0
				}

			}
, 			{
				"box" : 				{
					"maxclass" : "message",
					"text" : "decode 07917283010010F5040BC87238880900F10000993092516195800AE8329BFD4697D9EC37",
					"numinlets" : 2,
					"id" : "obj-5",
					"fontname" : "Arial",
					"patching_rect" : [ 10.0, 242.0, 574.0, 18.0 ],
					"numoutlets" : 1,
					"outlettype" : [ "" ],
					"fontsize" : 12.0
				}

			}
, 			{
				"box" : 				{
					"maxclass" : "message",
					"text" : "decode 07911326040000F0040B911346610089F60000208062917314080CC8F71D14969741F977FD07",
					"numinlets" : 2,
					"id" : "obj-16",
					"fontname" : "Arial",
					"patching_rect" : [ 10.0, 218.0, 574.0, 18.0 ],
					"numoutlets" : 1,
					"outlettype" : [ "" ],
					"fontsize" : 12.0
				}

			}
, 			{
				"box" : 				{
					"maxclass" : "message",
					"text" : "decode 07915892000000F0040B915892214365F700007040213252242331493A283D0795C3F33C88FE06C9CB6132885EC6D341EDF27C1E3E97E7207B3A0C0A5241E377BB1D7693E72E",
					"linecount" : 3,
					"numinlets" : 2,
					"id" : "obj-15",
					"fontname" : "Arial",
					"patching_rect" : [ 10.0, 166.0, 575.0, 46.0 ],
					"numoutlets" : 1,
					"outlettype" : [ "" ],
					"fontsize" : 12.0
				}

			}
, 			{
				"box" : 				{
					"maxclass" : "message",
					"text" : "decode 07919170389103F1040B919161177708F000002080820154518A53CE37886A0585DD6490FB0D1297CB72503BBC2E8390EF76590E3ABF41F377BB4C47A7DD67D0FCDD2ED3D169F7D9053ABE414379589FFF81886FF7890E6AA7DD6450DA0C4A82C8EF1008",
					"linecount" : 4,
					"numinlets" : 2,
					"id" : "obj-13",
					"fontname" : "Arial",
					"patching_rect" : [ 10.0, 100.0, 575.0, 60.0 ],
					"numoutlets" : 1,
					"outlettype" : [ "" ],
					"fontsize" : 12.0
				}

			}
, 			{
				"box" : 				{
					"maxclass" : "message",
					"numinlets" : 2,
					"id" : "obj-12",
					"fontname" : "Arial",
					"patching_rect" : [ 189.0, 441.0, 72.0, 18.0 ],
					"numoutlets" : 1,
					"outlettype" : [ "" ],
					"fontsize" : 12.0
				}

			}
, 			{
				"box" : 				{
					"maxclass" : "message",
					"numinlets" : 2,
					"id" : "obj-11",
					"fontname" : "Arial",
					"patching_rect" : [ 117.0, 441.0, 70.0, 18.0 ],
					"numoutlets" : 1,
					"outlettype" : [ "" ],
					"fontsize" : 12.0
				}

			}
, 			{
				"box" : 				{
					"maxclass" : "message",
					"numinlets" : 2,
					"id" : "obj-10",
					"fontname" : "Arial",
					"patching_rect" : [ 10.0, 441.0, 105.0, 18.0 ],
					"numoutlets" : 1,
					"outlettype" : [ "" ],
					"fontsize" : 12.0
				}

			}
, 			{
				"box" : 				{
					"maxclass" : "message",
					"numinlets" : 2,
					"id" : "obj-9",
					"fontname" : "Arial",
					"patching_rect" : [ 10.0, 478.0, 442.0, 18.0 ],
					"numoutlets" : 1,
					"outlettype" : [ "" ],
					"fontsize" : 12.0
				}

			}
, 			{
				"box" : 				{
					"maxclass" : "newobj",
					"text" : "route sendNumber time date zone msgText",
					"numinlets" : 1,
					"id" : "obj-8",
					"fontname" : "Arial",
					"patching_rect" : [ 96.0, 379.0, 240.0, 20.0 ],
					"numoutlets" : 6,
					"outlettype" : [ "", "", "", "", "", "" ],
					"fontsize" : 12.0
				}

			}
, 			{
				"box" : 				{
					"maxclass" : "newobj",
					"text" : "print",
					"numinlets" : 1,
					"id" : "obj-3",
					"fontname" : "Arial",
					"patching_rect" : [ 56.0, 366.0, 34.0, 20.0 ],
					"numoutlets" : 0,
					"fontsize" : 12.0
				}

			}
, 			{
				"box" : 				{
					"maxclass" : "newobj",
					"text" : "mxj f0.pdu",
					"numinlets" : 1,
					"id" : "obj-2",
					"fontname" : "Arial",
					"patching_rect" : [ 56.0, 335.0, 64.0, 20.0 ],
					"numoutlets" : 1,
					"outlettype" : [ "" ],
					"fontsize" : 12.0
				}

			}
 ],
		"lines" : [ 			{
				"patchline" : 				{
					"source" : [ "obj-5", 0 ],
					"destination" : [ "obj-2", 0 ],
					"hidden" : 0,
					"midpoints" : [  ]
				}

			}
, 			{
				"patchline" : 				{
					"source" : [ "obj-15", 0 ],
					"destination" : [ "obj-2", 0 ],
					"hidden" : 0,
					"midpoints" : [  ]
				}

			}
, 			{
				"patchline" : 				{
					"source" : [ "obj-13", 0 ],
					"destination" : [ "obj-2", 0 ],
					"hidden" : 0,
					"midpoints" : [  ]
				}

			}
, 			{
				"patchline" : 				{
					"source" : [ "obj-2", 0 ],
					"destination" : [ "obj-3", 0 ],
					"hidden" : 0,
					"midpoints" : [  ]
				}

			}
, 			{
				"patchline" : 				{
					"source" : [ "obj-16", 0 ],
					"destination" : [ "obj-2", 0 ],
					"hidden" : 0,
					"midpoints" : [  ]
				}

			}
, 			{
				"patchline" : 				{
					"source" : [ "obj-2", 0 ],
					"destination" : [ "obj-8", 0 ],
					"hidden" : 0,
					"midpoints" : [  ]
				}

			}
, 			{
				"patchline" : 				{
					"source" : [ "obj-8", 0 ],
					"destination" : [ "obj-10", 1 ],
					"hidden" : 0,
					"midpoints" : [  ]
				}

			}
, 			{
				"patchline" : 				{
					"source" : [ "obj-8", 1 ],
					"destination" : [ "obj-11", 1 ],
					"hidden" : 0,
					"midpoints" : [  ]
				}

			}
, 			{
				"patchline" : 				{
					"source" : [ "obj-8", 2 ],
					"destination" : [ "obj-12", 1 ],
					"hidden" : 0,
					"midpoints" : [  ]
				}

			}
, 			{
				"patchline" : 				{
					"source" : [ "obj-8", 3 ],
					"destination" : [ "obj-6", 1 ],
					"hidden" : 0,
					"midpoints" : [  ]
				}

			}
, 			{
				"patchline" : 				{
					"source" : [ "obj-8", 4 ],
					"destination" : [ "obj-9", 1 ],
					"hidden" : 0,
					"midpoints" : [  ]
				}

			}
, 			{
				"patchline" : 				{
					"source" : [ "obj-22", 0 ],
					"destination" : [ "obj-6", 1 ],
					"hidden" : 1,
					"midpoints" : [  ]
				}

			}
, 			{
				"patchline" : 				{
					"source" : [ "obj-22", 0 ],
					"destination" : [ "obj-12", 1 ],
					"hidden" : 1,
					"midpoints" : [  ]
				}

			}
, 			{
				"patchline" : 				{
					"source" : [ "obj-22", 0 ],
					"destination" : [ "obj-11", 1 ],
					"hidden" : 1,
					"midpoints" : [  ]
				}

			}
, 			{
				"patchline" : 				{
					"source" : [ "obj-22", 0 ],
					"destination" : [ "obj-9", 1 ],
					"hidden" : 1,
					"midpoints" : [  ]
				}

			}
, 			{
				"patchline" : 				{
					"source" : [ "obj-22", 0 ],
					"destination" : [ "obj-10", 1 ],
					"hidden" : 1,
					"midpoints" : [  ]
				}

			}
 ]
	}

}
